<?xml version="1.0" standalone="no"?>
<!DOCTYPE svg PUBLIC "-//W3C//DTD SVG 20010904//EN"
 "http://www.w3.org/TR/2001/REC-SVG-20010904/DTD/svg10.dtd">
<svg version="1.0" xmlns="http://www.w3.org/2000/svg"
 width="1024.000000pt" height="1024.000000pt" viewBox="0 0 1024.000000 1024.000000"
 preserveAspectRatio="xMidYMid meet">

<g transform="translate(0.000000,1024.000000) scale(0.100000,-0.100000)"
fill="#000000" stroke="none">
<path d="M0 10030 l0 -210 5120 0 5120 0 0 210 0 210 -5120 0 -5120 0 0 -210z"/>
<path d="M5252 7256 c-199 -66 -362 -123 -362 -126 0 -3 30 -16 68 -29 37 -13
72 -28 78 -33 17 -12 12 -221 -5 -242 -11 -13 -11 -22 -1 -47 11 -25 11 -49 1
-128 -7 -53 -15 -104 -18 -113 -4 -15 3 -18 47 -18 47 0 50 1 46 23 -3 12 -10
64 -17 116 -9 75 -8 98 2 118 10 19 11 28 1 44 -14 22 -25 226 -13 234 7 4
423 -131 503 -163 24 -10 41 -7 110 19 79 29 419 143 568 190 39 12 70 25 70
29 0 4 -161 61 -358 127 l-358 120 -362 -121z"/>
<path d="M5202 6890 c-21 -124 -25 -118 70 -119 95 -1 187 -22 278 -63 l65
-29 50 25 c91 44 192 69 286 70 l86 1 -4 40 c-2 22 -9 64 -15 93 -8 44 -13 52
-26 47 -10 -3 -99 -34 -199 -68 l-183 -61 -187 63 c-104 35 -193 66 -198 68
-6 2 -16 -27 -23 -67z"/>
<path d="M1980 6655 c0 -34 5 -39 92 -95 50 -33 96 -61 100 -62 9 -3 11 -2088
2 -2111 -2 -7 -28 -26 -57 -41 -29 -16 -73 -44 -99 -63 -43 -31 -48 -39 -48
-73 l0 -38 475 -1 475 -2 0 36 c0 41 -19 60 -118 125 -31 20 -62 43 -69 51 -8
10 -12 177 -13 619 -1 333 -2 615 -1 628 2 42 21 22 64 -65 45 -92 205 -384
337 -613 42 -74 99 -175 125 -225 55 -103 75 -137 90 -148 5 -4 68 -5 139 -3
l130 4 36 64 c35 59 106 189 195 353 21 39 57 102 80 140 24 39 64 113 90 165
75 151 187 350 196 350 5 0 9 -282 9 -634 l0 -635 -52 -30 c-29 -17 -75 -48
-103 -69 -42 -32 -50 -44 -53 -75 l-3 -37 485 0 486 0 -6 33 c-3 17 -7 37 -9
43 -2 6 -46 40 -99 75 l-96 64 0 1051 0 1052 86 57 c47 31 92 59 100 62 9 3
14 20 14 44 l0 39 -383 0 -383 0 -23 -47 c-13 -27 -44 -84 -71 -128 -26 -44
-69 -120 -95 -170 -26 -49 -78 -144 -115 -210 -37 -66 -89 -160 -115 -210 -48
-89 -65 -120 -135 -245 -20 -36 -60 -108 -89 -160 -57 -102 -69 -120 -81 -120
-10 0 -153 256 -460 825 -57 105 -114 210 -128 235 -13 25 -47 87 -74 138
l-50 92 -389 0 -389 0 0 -35z"/>
<path d="M5150 6657 c0 -30 7 -39 65 -80 36 -26 68 -47 73 -47 4 0 19 -12 35
-25 l27 -24 0 -1050 0 -1050 -76 -48 c-119 -75 -134 -90 -134 -129 l0 -34 490
0 490 0 0 33 c0 37 -18 57 -90 103 -25 15 -62 41 -82 57 l-38 29 0 1046 1
1047 104 70 c96 65 104 73 105 103 l0 32 -165 0 c-152 0 -170 -2 -225 -24 -33
-14 -73 -34 -90 -46 l-30 -21 -29 20 c-16 12 -53 32 -83 46 -49 23 -64 25
-200 25 l-148 0 0 -33z"/>
<path d="M6250 6371 l0 -319 32 -7 c37 -9 52 6 139 135 28 41 56 77 62 80 7 3
126 4 265 2 l252 -3 0 -938 0 -938 -81 -48 c-117 -69 -139 -90 -139 -131 l0
-34 500 0 500 0 0 38 c0 38 -2 40 -110 111 l-110 72 0 933 c0 513 2 935 4 937
2 2 119 3 258 1 l254 -3 30 -46 c16 -26 48 -73 71 -105 40 -54 46 -58 83 -58
l40 0 -2 318 -3 317 -1022 3 -1023 2 0 -319z"/>
<path d="M763 422 l-763 -2 0 -210 0 -210 5120 0 5120 0 0 210 0 211 -270 -1
c-183 -1 -272 -5 -276 -12 -5 -7 -2 -8 7 -3 12 8 12 6 0 -8 -7 -9 -10 -17 -6
-17 4 0 2 -7 -5 -15 -6 -8 -9 -19 -5 -25 3 -5 1 -10 -5 -10 -7 0 -9 16 -5 45
3 26 1 45 -5 45 -5 0 -7 -7 -4 -15 4 -8 1 -15 -5 -15 -6 0 -11 7 -11 15 0 13
-277 15 -2427 16 -1336 0 -3164 1 -4063 2 -899 1 -1978 1 -2397 -1z"/>
</g>
</svg>
